<svg xmlns="http://www.w3.org/2000/svg" xmlns:xlink="http://www.w3.org/1999/xlink" width="558" height="565" viewBox="0 0 558 565"><defs><linearGradient id="a" x1="0.5" x2="0.5" y2="1" gradientUnits="objectBoundingBox"><stop offset="0" stop-color="#0064ff"/><stop offset="1" stop-color="#ff00e2"/></linearGradient><clipPath id="c"><rect width="558" height="565"/></clipPath></defs><g id="b" clip-path="url(#c)"><rect width="558" height="565" fill="#fff"/><g transform="translate(-1075 -258)"><circle cx="276.5" cy="276.5" r="276.5" transform="translate(1078 264)" fill="url(#a)"/><path d="M176.671,315.925l-23.06-69.784L148.9,226h-3.888L140.3,246.141l-23.06,69.784c-2.443,9.113-13.5,14.068-24.706,11.066S74.228,314.168,76.67,305.055c0,0,25.516-53.338,27.33-99.151v-78.43A693.293,693.293,0,0,1,21,116a21,21,0,0,1,0-42S62.682,86.3,138.465,87H151.86C227.839,86.3,273,74,273,74a21,21,0,1,1,0,42,780.275,780.275,0,0,1-85,11.381v70.627q.276,3.611.392,7.186c1.467,46.039,28.848,99.861,28.848,99.861,2.442,9.113-4.66,18.934-15.863,21.936a25.415,25.415,0,0,1-6.573.877C186.131,327.868,178.63,323.234,176.671,315.925ZM104,42a42,42,0,1,1,42,42A42,42,0,0,1,104,42Z" transform="translate(1207 375)" fill="#fff"/><g transform="translate(1103 289)" fill="none" stroke="#fff" stroke-width="21"><circle cx="251.5" cy="251.5" r="251.5" stroke="none"/><circle cx="251.5" cy="251.5" r="241" fill="none"/></g></g></g></svg>