<svg xmlns="http://www.w3.org/2000/svg" xmlns:xlink="http://www.w3.org/1999/xlink" width="498" height="113" viewBox="0 0 498 113">
  <defs>
    <clipPath id="clip-path">
      <path id="Path_51" data-name="Path 51" d="M34.142,0,0,94.841H38.695L72.837,0Z" fill="none"/>
    </clipPath>
    <linearGradient id="linear-gradient" x1="0.223" y1="0.777" x2="0.23" y2="0.777" gradientUnits="objectBoundingBox">
      <stop offset="0" stop-color="#4937c1"/>
      <stop offset="1" stop-color="#890089"/>
    </linearGradient>
    <clipPath id="clip-path-2">
      <rect id="Rectangle_13" data-name="Rectangle 13" width="484.545" height="94.892" transform="translate(0 0)" fill="none"/>
    </clipPath>
    <clipPath id="clip-logo">
      <rect width="498" height="113"/>
    </clipPath>
  </defs>
  <g id="logo" clip-path="url(#clip-logo)">
    <g id="Group_19" data-name="Group 19" transform="translate(7 10)">
      <g id="Group_16" data-name="Group 16">
        <g id="Group_15" data-name="Group 15" clip-path="url(#clip-path)">
          <path id="Path_50" data-name="Path 50" d="M58.084,132.956,102.11,19.209,14.753-38.116-29.273,75.631Z" fill="url(#linear-gradient)"/>
        </g>
      </g>
      <path id="Path_52" data-name="Path 52" d="M34.9,0,69.042,94.84h38.7L73.6,0Z" fill="#4937c1"/>
      <g id="Group_18" data-name="Group 18">
        <g id="Group_17" data-name="Group 17" clip-path="url(#clip-path-2)">
          <path id="Path_53" data-name="Path 53" d="M130.138,84.741a34.361,34.361,0,0,0,6.09-.595,33.4,33.4,0,0,0,5.88-1.575v9.59a38.791,38.791,0,0,1-6.93,2.136,34.037,34.037,0,0,1-6.44.594,27.7,27.7,0,0,1-9.73-1.4,12.35,12.35,0,0,1-5.81-4.479,18.858,18.858,0,0,1-2.695-6.791,49.024,49.024,0,0,1-.875-10.01q0-11.76,5.075-17.185T130.838,49.6q3.219,0,5.74.14a40.027,40.027,0,0,1,4.55.49v9.45q-2.31-.138-4.8-.21t-5.495-.07a16.46,16.46,0,0,0-5.7.736,5.1,5.1,0,0,0-2.765,2.554,10.2,10.2,0,0,0-1.19,3.71,39.811,39.811,0,0,0-.35,5.81,39.888,39.888,0,0,0,.315,5.5,12.811,12.811,0,0,0,1.015,3.676,5.31,5.31,0,0,0,2.66,2.589,13.9,13.9,0,0,0,5.32.77" fill="#4937c1"/>
          <path id="Path_54" data-name="Path 54" d="M165.348,84.741a34.361,34.361,0,0,0,6.09-.595,33.4,33.4,0,0,0,5.88-1.575v9.59a38.791,38.791,0,0,1-6.93,2.136,34.037,34.037,0,0,1-6.44.594,27.7,27.7,0,0,1-9.73-1.4,12.35,12.35,0,0,1-5.81-4.479,18.858,18.858,0,0,1-2.7-6.791,49.024,49.024,0,0,1-.875-10.01q0-11.76,5.075-17.185T166.048,49.6q3.219,0,5.74.14a40.027,40.027,0,0,1,4.55.49v9.45q-2.31-.138-4.795-.21t-5.495-.07a16.46,16.46,0,0,0-5.705.736,5.1,5.1,0,0,0-2.765,2.554,10.2,10.2,0,0,0-1.19,3.71,39.812,39.812,0,0,0-.35,5.81,39.889,39.889,0,0,0,.315,5.5,12.811,12.811,0,0,0,1.015,3.676,5.31,5.31,0,0,0,2.66,2.589,13.9,13.9,0,0,0,5.32.77" fill="#4937c1"/>
          <path id="Path_55" data-name="Path 55" d="M212.108,84.041v10.15h-30.24V50.3h29.61v9.8h-18.76v7.28h16.17v9.1h-16.17v7.56Z" fill="#4937c1"/>
          <path id="Path_56" data-name="Path 56" d="M233.877,77.812l-8.89-2.1q-5.32-1.258-7.245-3.849t-1.925-7.42q0-7.629,4.025-11.236t12.5-3.6a61.591,61.591,0,0,1,6.23.28,26.8,26.8,0,0,1,5.04.979v9.731q-5.32-.909-7.315-1.051t-4.165-.139a7.3,7.3,0,0,0-4.27.98,3.818,3.818,0,0,0-1.33,3.29,2.955,2.955,0,0,0,.42,1.715,2.628,2.628,0,0,0,1.61.875l8.4,1.96a25.707,25.707,0,0,1,5.25,1.645,7.429,7.429,0,0,1,2.59,2.065,8.408,8.408,0,0,1,1.645,3.43,21.379,21.379,0,0,1,.525,5.11q0,7.63-4.06,11.025t-12.6,3.395a62.233,62.233,0,0,1-8.26-.525,31.543,31.543,0,0,1-6.09-1.295V82.782a38.545,38.545,0,0,0,6.65,1.435,56.916,56.916,0,0,0,7.7.525,8.414,8.414,0,0,0,4.27-.77q1.189-.771,1.19-3.08a4.464,4.464,0,0,0-.385-2.135,2.269,2.269,0,0,0-1.505-.945" fill="#4937c1"/>
          <path id="Path_57" data-name="Path 57" d="M268.107,77.812l-8.89-2.1q-5.321-1.258-7.245-3.849t-1.925-7.42q0-7.629,4.025-11.236t12.495-3.6a61.591,61.591,0,0,1,6.23.28,26.775,26.775,0,0,1,5.039.979v9.731q-5.319-.909-7.314-1.051t-4.165-.139a7.3,7.3,0,0,0-4.271.98,3.821,3.821,0,0,0-1.33,3.29,2.962,2.962,0,0,0,.42,1.715,2.637,2.637,0,0,0,1.612.875l8.4,1.96a25.707,25.707,0,0,1,5.25,1.645,7.42,7.42,0,0,1,2.59,2.065,8.408,8.408,0,0,1,1.645,3.43,21.379,21.379,0,0,1,.525,5.11q0,7.63-4.06,11.025t-12.6,3.395a62.237,62.237,0,0,1-8.261-.525,31.543,31.543,0,0,1-6.09-1.295V82.782a38.546,38.546,0,0,0,6.65,1.435,56.908,56.908,0,0,0,7.7.525,8.415,8.415,0,0,0,4.269-.77Q270,83.2,270,80.892a4.463,4.463,0,0,0-.385-2.135,2.269,2.269,0,0,0-1.505-.945" fill="#4937c1"/>
          <rect id="Rectangle_10" data-name="Rectangle 10" width="10.851" height="43.89" transform="translate(285.676 50.302)" fill="#4937c1"/>
          <path id="Path_58" data-name="Path 58" d="M337.476,81.311q0,6.651-3.885,9.765t-12.215,3.115H303.247V50.3h18.129q7.56,0,10.746,2.625t3.184,8.785a13.564,13.564,0,0,1-1.05,5.985,7.052,7.052,0,0,1-4.2,3.186,8.6,8.6,0,0,1,5.6,3.359,12.113,12.113,0,0,1,1.819,7.07M325.3,63.321a4.627,4.627,0,0,0-.875-3.22,4.133,4.133,0,0,0-3.045-.91H314.1v8.89h7.28A3.71,3.71,0,0,0,324.421,67a5.941,5.941,0,0,0,.875-3.675m1.68,17.29a4.309,4.309,0,0,0-1.26-3.535q-1.26-1.014-4.34-1.015H314.1v8.89h7.28q3.079,0,4.34-.98a4.01,4.01,0,0,0,1.26-3.36" fill="#4937c1"/>
          <rect id="Rectangle_11" data-name="Rectangle 11" width="10.851" height="43.89" transform="translate(342.236 50.302)" fill="#4937c1"/>
          <path id="Path_59" data-name="Path 59" d="M387.805,84.041v10.15h-28V50.3h10.85v33.74Z" fill="#4937c1"/>
          <rect id="Rectangle_12" data-name="Rectangle 12" width="10.851" height="43.89" transform="translate(392.075 50.302)" fill="#4937c1"/>
          <path id="Path_60" data-name="Path 60" d="M441.915,50.3v9.8h-11.97v34.09h-10.85V60.1h-11.97V50.3Z" fill="#4937c1"/>
          <path id="Path_61" data-name="Path 61" d="M473.345,50.3h11.2l-15.33,27.93v15.96h-10.85V78.231L442.615,50.3H455l8.82,18.34Z" fill="#4937c1"/>
        </g>
      </g>
    </g>
  </g>
</svg>
