<svg xmlns="http://www.w3.org/2000/svg" width="134" height="99" viewBox="0 0 134 99">
  <g id="Group_14" data-name="Group 14" transform="translate(-741 -441)">
    <rect id="Rectangle_6" data-name="Rectangle 6" width="134" height="99" transform="translate(741 441)" fill="none"/>
    <g id="Group_13" data-name="Group 13" transform="translate(2.528 -2.042)">
      <path id="Path_38" data-name="Path 38" d="M317.126,159.93h0a2.462,2.462,0,0,1,2.462-2.462h63.13a2.462,2.462,0,1,1,0,4.924h-63.13a2.462,2.462,0,0,1-2.462-2.462" transform="translate(454.346 332.503)" fill="#4937c1"/>
      <path id="Path_39" data-name="Path 39" d="M324.123,138h0a2.462,2.462,0,0,1,2.462-2.462H375.72a2.462,2.462,0,1,1,0,4.924H326.585A2.462,2.462,0,0,1,324.123,138" transform="translate(454.346 332.503)" fill="#4937c1"/>
      <path id="Path_40" data-name="Path 40" d="M330.153,149.075h0a2.462,2.462,0,0,1,2.462-2.462h37.076a2.462,2.462,0,1,1,0,4.924H332.615a2.462,2.462,0,0,1-2.462-2.462" transform="translate(454.346 332.503)" fill="#4937c1"/>
      <path id="Path_41" data-name="Path 41" d="M330.153,171.011h0a2.462,2.462,0,0,1,2.462-2.462h37.076a2.462,2.462,0,1,1,0,4.924H332.615a2.462,2.462,0,0,1-2.462-2.462" transform="translate(454.346 332.503)" fill="#4937c1"/>
      <path id="Path_42" data-name="Path 42" d="M324.123,182.168h0a2.462,2.462,0,0,1,2.462-2.462H375.72a2.462,2.462,0,1,1,0,4.924H326.585a2.462,2.462,0,0,1-2.462-2.462" transform="translate(454.346 332.503)" fill="#4937c1"/>
    </g>
  </g>
</svg>
