<svg xmlns="http://www.w3.org/2000/svg" width="133.999" height="99" viewBox="0 0 133.999 99">
  <g id="Group_12" data-name="Group 12" transform="translate(-1017 -397)">
    <rect id="Rectangle_5" data-name="Rectangle 5" width="133.999" height="99" transform="translate(1017 397)" fill="none"/>
    <g id="Group_11" data-name="Group 11" transform="translate(-0.487 0.195)">
      <path id="Path_44" data-name="Path 44" d="M492.64,121.623c12.506,0,25.013-.059,37.518.018,10.245.063,14.724,4.394,14.836,14.52q.2,18.111-.012,36.224c-.111,8.687-5.078,13.484-13.788,13.535-12.937.076-6.885.319-19.808-.114-5.873-.2-10.431,1.093-14,5.85-3.471,4.624-7.206,5.025-10.949.186a14.658,14.658,0,0,0-5.771-4.672c-2.19-.952-23.677-1.32-26.554-1.164-8.249.447-13.267-4.617-13.4-12.926q-.3-19.077.006-38.163c.137-8.95,4.6-13.136,13.755-13.208,12.72-.1,25.442-.026,38.164-.026v-.06" transform="translate(590.917 288.204)" fill="#4937c1"/>
      <path id="Path_45" data-name="Path 45" d="M513.56,153.462a21.473,21.473,0,1,1-21.473-21.473,21.473,21.473,0,0,1,21.473,21.473" transform="translate(590.917 288.204)" fill="#fff"/>
      <path id="Path_46" data-name="Path 46" d="M494.387,142.083a2.058,2.058,0,0,1-4.116,0,2.025,2.025,0,0,1,2.077-2.077,1.973,1.973,0,0,1,2.039,2.077m-3.7,5.136h3.323v18.275h-3.323Z" transform="translate(590.917 288.204)" fill="#4937c1"/>
    </g>
  </g>
</svg>
