<svg xmlns="http://www.w3.org/2000/svg" width="135" height="100" viewBox="0 0 135 100">
  <g id="Grupo_39" data-name="Grupo 39" transform="translate(-1730.5 755.5)">
    <path id="Trazado_1" data-name="Trazado 1" d="M1,2.391H134v98H1Zm-1,99H135v-100H0Z" transform="translate(1730.5 -756.891)" fill="none"/>
    <g id="Unión_3" data-name="Unión 3" transform="translate(1754.352 -732.02) rotate(-24)" fill="#fff">
      <path d="M 37.61280059814453 76.50251007080078 L 19.70190620422363 76.50251007080078 C 18.59931755065918 76.50251007080078 17.70230674743652 75.60508728027344 17.70230674743652 74.50199890136719 L 17.70230674743652 43.54829788208008 L 17.70230674743652 41.54829788208008 L 15.70230674743652 41.54829788208008 L 5.131800651550293 41.54829788208008 C 4.590753555297852 41.54829788208008 4.334883213043213 41.17809677124023 4.249989032745361 41.0189323425293 C 4.165071487426758 40.85970687866211 4.000094890594482 40.44086074829102 4.301577091217041 39.99136734008789 L 27.82664680480957 4.920226097106934 C 28.08534240722656 4.534626007080078 28.45815277099609 4.477025985717773 28.6573543548584 4.477025985717773 C 28.85654258728027 4.477025985717773 29.2293529510498 4.534626007080078 29.4881534576416 4.920367240905762 L 53.01316452026367 39.99142456054688 C 53.31502532958984 40.44116592407227 53.15029525756836 40.85968399047852 53.06547164916992 41.01877975463867 C 52.98057556152344 41.1779899597168 52.72465896606445 41.54829788208008 52.18289566040039 41.54829788208008 L 41.61330795288086 41.54829788208008 L 39.61330795288086 41.54829788208008 L 39.61330795288086 43.54829788208008 L 39.61330795288086 74.50199890136719 C 39.61330795288086 75.60508728027344 38.71588134765625 76.50251007080078 37.61280059814453 76.50251007080078 Z" stroke="none"/>
      <path d="M 37.61280059814453 74.50250244140625 C 37.61299514770508 74.50250244140625 37.6131591796875 74.50241851806641 37.61330795288086 74.50226593017578 C 37.61330795288086 74.50217437744141 37.61330795288086 74.50208282470703 37.61330795288086 74.50199890136719 L 37.61330795288086 39.54830169677734 L 50.30765151977539 39.54830169677734 L 28.6573543548584 7.272068023681641 L 7.007056713104248 39.54830169677734 L 19.70229339599609 39.54830169677734 L 19.70229339599609 74.50199890136719 C 19.70229339599609 74.50216674804688 19.70229530334473 74.50233459472656 19.70190811157227 74.50250244140625 L 37.61280059814453 74.50250244140625 M 37.61280059814453 78.50250244140625 L 19.70190811157227 78.50250244140625 C 17.49240112304688 78.50250244140625 15.70229434967041 76.71150207519531 15.70229434967041 74.50199890136719 L 15.70229434967041 43.54830169677734 L 5.131800651550293 43.54830169677734 C 2.73240065574646 43.54830169677734 1.304107308387756 40.86990356445312 2.640600681304932 38.87730407714844 L 26.16570663452148 3.806102752685547 C 27.3546028137207 2.033996105194092 29.96009635925293 2.033996105194092 31.14900016784668 3.806102752685547 L 54.67410659790039 38.87730407714844 C 56.01150894165039 40.86990356445312 54.58320236206055 43.54830169677734 52.18289566040039 43.54830169677734 L 41.61330795288086 43.54830169677734 L 41.61330795288086 74.50199890136719 C 41.61330795288086 76.71150207519531 39.82229232788086 78.50250244140625 37.61280059814453 78.50250244140625 Z" stroke="none" fill="#4638ba"/>
    </g>
  </g>
</svg>
