<svg xmlns="http://www.w3.org/2000/svg" width="135" height="100" viewBox="0 0 135 100">
  <g id="Grupo_39" data-name="Grupo 39" transform="translate(-1730.5 755.5)">
    <path id="Trazado_1" data-name="Trazado 1" d="M1,2.391H134v98H1Zm-1,99H135v-100H0Z" transform="translate(1730.5 -756.891)" fill="none"/>
    <g id="Unión_3" data-name="Unión 3" transform="translate(1764.814 -725.732) rotate(-24)" fill="#fff">
      <path d="M 27.06840133666992 56.50270080566406 L 16.24590110778809 56.50270080566406 C 15.14332008361816 56.50270080566406 14.24630069732666 55.60527801513672 14.24630069732666 54.50220108032227 L 14.24630069732666 32.85630035400391 L 14.24630069732666 30.85630035400391 L 12.24630069732666 30.85630035400391 L 6.075900554656982 30.85630035400391 C 5.535830497741699 30.85630035400391 5.279730319976807 30.48760986328125 5.194700241088867 30.32909965515137 C 5.109570503234863 30.17041015625 4.943860530853271 29.75268936157227 5.242900371551514 29.30220031738281 L 20.82435035705566 5.84045934677124 C 21.08237075805664 5.452169418334961 21.4571704864502 5.394129753112793 21.65760040283203 5.394129753112793 C 21.85803031921387 5.394129753112793 22.23283004760742 5.452169418334961 22.49112129211426 5.840879440307617 L 38.07255172729492 29.30255889892578 C 38.37134170532227 29.75268936157227 38.20563125610352 30.17041015625 38.12049865722656 30.32909965515137 C 38.03546905517578 30.48760986328125 37.77936935424805 30.85630035400391 37.23929977416992 30.85630035400391 L 31.06890106201172 30.85630035400391 L 29.06890106201172 30.85630035400391 L 29.06890106201172 32.85630035400391 L 29.06890106201172 54.50220108032227 C 29.06890106201172 55.60527801513672 28.17148017883301 56.50270080566406 27.06840133666992 56.50270080566406 Z" stroke="none"/>
      <path d="M 27.06840133666992 54.50270080566406 C 27.06858253479004 54.5026969909668 27.06874656677246 54.50260925292969 27.06889915466309 54.50246429443359 C 27.06890106201172 54.50237655639648 27.06890106201172 54.50228881835938 27.06890106201172 54.50220108032227 L 27.06890106201172 28.85630035400391 L 35.37529373168945 28.85630035400391 L 21.65760231018066 8.200922966003418 L 7.939907073974609 28.85630035400391 L 16.24629974365234 28.85630035400391 L 16.24629974365234 54.50220108032227 C 16.24629974365234 54.50236892700195 16.24626350402832 54.50253677368164 16.24642181396484 54.50270080566406 L 27.06840133666992 54.50270080566406 M 27.06840133666992 58.50270080566406 L 16.24590110778809 58.50270080566406 C 14.03730010986328 58.50270080566406 12.24630069732666 56.71170043945312 12.24630069732666 54.50220108032227 L 12.24630069732666 32.85630035400391 L 6.075900554656982 32.85630035400391 C 3.681900501251221 32.85630035400391 2.252700328826904 30.19050025939941 3.576600313186646 28.19610023498535 L 19.15830039978027 4.733999729156494 C 20.34539985656738 2.94749927520752 22.96980094909668 2.94749927520752 24.15690040588379 4.733999729156494 L 39.73860168457031 28.19610023498535 C 41.0625 30.19050025939941 39.63330078125 32.85630035400391 37.23929977416992 32.85630035400391 L 31.06890106201172 32.85630035400391 L 31.06890106201172 54.50220108032227 C 31.06890106201172 56.71170043945312 29.27790069580078 58.50270080566406 27.06840133666992 58.50270080566406 Z" stroke="none" fill="#4638ba"/>
    </g>
  </g>
</svg>
