<svg xmlns="http://www.w3.org/2000/svg" width="77.817" height="93.296" viewBox="0 0 77.817 93.296">
  <g id="Unión_2" data-name="Unión 2" transform="translate(-3.232 18.381) rotate(-24)" fill="#fff">
    <path d="M 35.00009536743164 80.99980163574219 L 18.99990653991699 80.99980163574219 C 17.89731788635254 80.99980163574219 17.00030517578125 80.10279083251953 17.00030517578125 79.00020599365234 L 17.00030517578125 45.99989700317383 L 17.00030517578125 43.99989700317383 L 15.00030612945557 43.99989700317383 L 5.239799976348877 43.99989700317383 C 4.716423511505127 43.99989700317383 4.458506107330322 43.64823913574219 4.371917724609375 43.49705123901367 C 4.285235404968262 43.34572219848633 4.112270355224609 42.9449462890625 4.377411842346191 42.49294662475586 L 26.1373405456543 5.420604228973389 C 26.39898872375488 4.974686622619629 26.82778739929199 4.926580905914307 27.0000114440918 4.926580905914307 C 27.1722240447998 4.926580905914307 27.60102272033691 4.974686622619629 27.86254119873047 5.420392513275146 L 49.62287139892578 42.49340438842773 C 49.88774108886719 42.9449462890625 49.71477508544922 43.34572219848633 49.62809371948242 43.49705123901367 C 49.54150772094727 43.64823913574219 49.28358840942383 43.99989700317383 48.76020050048828 43.99989700317383 L 38.99970626831055 43.99989700317383 L 36.99970626831055 43.99989700317383 L 36.99970626831055 45.99989700317383 L 36.99970626831055 79.00020599365234 C 36.99970626831055 80.10279083251953 36.10268402099609 80.99980163574219 35.00009536743164 80.99980163574219 Z" stroke="none"/>
    <path d="M 35.00009918212891 78.99980926513672 L 34.99968719482422 78.99980926513672 C 34.99969100952148 78.99980163574219 34.99969482421875 78.99980163574219 34.99969863891602 79.00019073486328 L 34.99969863891602 41.99989318847656 L 47.01413345336914 41.99989318847656 L 26.9999942779541 7.901861667633057 L 6.985872268676758 41.99989318847656 L 19.00029945373535 41.99989318847656 L 19.00048637390137 78.99980926513672 L 35.00009918212891 78.99980926513672 M 35.00009918212891 82.99980926513672 L 18.99990081787109 82.99980926513672 C 16.79129981994629 82.99980926513672 15.00030040740967 81.20880889892578 15.00030040740967 79.00019073486328 L 15.00030040740967 45.99989318847656 L 5.239799976348877 45.99989318847656 C 2.920500040054321 45.99989318847656 1.478700041770935 43.48169326782227 2.652299880981445 41.48100662231445 L 24.41250038146973 4.408194065093994 C 25.57169914245605 2.432708740234375 28.42830085754395 2.432708740234375 29.58749961853027 4.408194065093994 L 51.34769821166992 41.48100662231445 C 52.52130126953125 43.48169326782227 51.07949829101562 45.99989318847656 48.76020050048828 45.99989318847656 L 38.99969863891602 45.99989318847656 L 38.99969863891602 79.00019073486328 C 38.99969863891602 81.20880889892578 37.20869827270508 82.99980926513672 35.00009918212891 82.99980926513672 Z" stroke="none" fill="#000"/>
  </g>
</svg>
