<svg xmlns="http://www.w3.org/2000/svg" width="134" height="99" viewBox="0 0 134 99">
  <g id="Group_2" data-name="Group 2" transform="translate(-452 -413)">
    <rect id="Rectangle_8" data-name="Rectangle 8" width="134" height="99" transform="translate(452 413)" fill="none"/>
    <g id="Group_1" data-name="Group 1" transform="translate(5.916 -0.064)">
      <path id="Path_23" data-name="Path 23" d="M162.3,157.239q-.015-.454-.015-.912a26.612,26.612,0,1,1,.015.912" transform="translate(305.639 305.882)" fill="#4b37cb"/>
      <path id="Path_24" data-name="Path 24" d="M188.913,186.638a30.183,30.183,0,0,1-30.294-29.275v0q-.017-.514-.017-1.034a30.311,30.311,0,1,1,30.311,30.311m-22.935-29.523a22.963,22.963,0,1,0-.013-.788q0,.4.013.788" transform="translate(305.639 305.882)" fill="#4935cc"/>
      <path id="Path_25" data-name="Path 25" d="M194.251,134.049a22.939,22.939,0,0,0-28.443,22.278c0,.264,0,.526.013.788a22.94,22.94,0,0,0,28.43,21.49,35.07,35.07,0,0,1,0-44.556" transform="translate(305.639 305.882)" fill="#aca7e4"/>
      <path id="Path_27" data-name="Path 27" d="M188.756,182.957h0a26.63,26.63,0,0,1-26.614-25.718c-.01-.3-.016-.606-.016-.912a26.63,26.63,0,0,1,34.932-25.3,35.464,35.464,0,0,1,3.194-2.738,30.3,30.3,0,0,0-41.807,28.04c0,.347.006.691.017,1.034v0a30.3,30.3,0,0,0,41.79,27,35.294,35.294,0,0,1-3.194-2.737,26.6,26.6,0,0,1-8.3,1.327" transform="translate(305.639 305.882)" fill="#4b35ca"/>
      <path id="Path_28" data-name="Path 28" d="M221.412,121.182a34.963,34.963,0,0,0-21.16,7.105,30.318,30.318,0,0,1,7.073,4.109,27.782,27.782,0,1,1,0,47.863,30.28,30.28,0,0,1-7.073,4.108,35.138,35.138,0,1,0,21.16-63.185" transform="translate(305.639 305.882)" fill="#4b35ca"/>
      <path id="Path_29" data-name="Path 29" d="M201.339,175.5a22.82,22.82,0,0,1-7.087,3.1,35.37,35.37,0,0,0,2.806,3.025,26.5,26.5,0,0,0,7.078-3.57,27.863,27.863,0,0,1-2.8-2.556" transform="translate(305.639 305.882)" fill="#4a37c6"/>
      <path id="Path_30" data-name="Path 30" d="M194.251,134.049a22.844,22.844,0,0,1,7.087,3.1,28.1,28.1,0,0,1,2.8-2.556,26.516,26.516,0,0,0-7.078-3.57,35.516,35.516,0,0,0-2.806,3.025" transform="translate(305.639 305.882)" fill="#4a37c6"/>
      <path id="Path_31" data-name="Path 31" d="M202.221,177.7a25.545,25.545,0,0,0,0-42.742,30.877,30.877,0,0,0,0,42.742" transform="translate(305.639 305.882)" fill="#ada7e9"/>
    </g>
  </g>
</svg>
