<svg xmlns="http://www.w3.org/2000/svg" width="135" height="100.001" viewBox="0 0 135 100.001">
  <g id="Group_10" data-name="Group 10" transform="translate(-988 -60)">
    <path id="Path_4" data-name="Path 4" d="M427.787,1h133V99h-133Zm-1,99h135V0h-135Z" transform="translate(561.214 60.001)" fill="none"/>
    <g id="Group_9" data-name="Group 9" transform="translate(-3.262 3.791)">
      <path id="Path_9" data-name="Path 9" d="M461.413,66.4a24.25,24.25,0,0,1-3.506-.027c-3.391-.5-5.3.412-5.939,4.237-.621,3.709-3.066,4.967-6.261,4.2-2.675-.645-3.959-3.457-3.255-6.839,2.423-11.643,5.73-22.986,12.016-33.2,4.141-6.728,9.016-8.651,15.027-6.382,3.079,1.162,5.147,3.522,6.813,6.207,5.788,9.327,8.67,19.756,11.278,30.273a24.924,24.924,0,0,1,.793,5.1c.119,3.173-1.617,4.506-4.27,4.9-3,.443-4.9-1.31-5.532-4.041-1.737-7.451-3.973-14.745-6.413-21.986a41.335,41.335,0,0,0-4.957-9.544c-.95-1.437-1.944-1.848-3.209-.232-4.514,5.769-6.587,12.6-8.5,19.486-.442,1.592.891,1.3,1.736,1.309,3.158.03,6.317,0,9.476,0,2.322,0,4.165.539,4.047,3.457-.11,2.733-1.9,3.127-4.079,3.091-1.754-.028-3.509,0-5.264,0" transform="translate(561 59.766)" fill="#4937c1"/>
      <path id="Path_43" data-name="Path 43" d="M493.385,73.145v-.623a.514.514,0,0,1,.441-.5,6.709,6.709,0,0,0,4.475-2.407q1.638-2.1,5.618-11.472l17.569-41.387a.509.509,0,0,1,.468-.309h1.023a.508.508,0,0,1,.466.3L544.481,64.61q2.115,4.787,3.381,5.92a7.564,7.564,0,0,0,3.831,1.484.5.5,0,0,1,.421.5v.63a.508.508,0,0,1-.508.508H531.017a.509.509,0,0,1-.509-.508v-.6a.507.507,0,0,1,.458-.506,17.328,17.328,0,0,0,4.344-.764q1.077-.474,1.078-2.333a10.272,10.272,0,0,0-.415-2.187,23.9,23.9,0,0,0-1.161-3.3l-3.271-7.86a.511.511,0,0,0-.47-.313H509.364a.512.512,0,0,0-.474.324q-3.194,8.052-3.824,9.852a9.41,9.41,0,0,0-.644,2.911,3,3,0,0,0,1.741,2.973,12.534,12.534,0,0,0,3.6.7.509.509,0,0,1,.46.506v.6a.509.509,0,0,1-.509.508H493.894a.509.509,0,0,1-.509-.508m36.3-22.018-8.976-21.569a.508.508,0,0,0-.938,0l-9.017,21.569a.509.509,0,0,0,.469.705h17.993a.509.509,0,0,0,.469-.7" transform="translate(561 59.766)" fill="#4937c1"/>
    </g>
  </g>
</svg>
