<svg xmlns="http://www.w3.org/2000/svg" width="134" height="99" viewBox="0 0 134 99">
  <g id="Group_6" data-name="Group 6" transform="translate(-453 -80)">
    <rect id="Rectangle_2" data-name="Rectangle 2" width="134" height="99" transform="translate(453 80)" fill="none"/>
    <g id="Group_5" data-name="Group 5" transform="translate(0.249 -0.219)">
      <path id="Path_20" data-name="Path 20" d="M220.037,51.954a4.3,4.3,0,0,1,1.464-2.24c3.042-3.063,6.082-6.129,9.158-9.158,3.157-3.111,6.91-4.2,11.127-2.718a10.215,10.215,0,0,1,7.1,8.826,9.533,9.533,0,0,1-2.5,8.038c-3.439,3.664-6.948,7.284-10.673,10.651A10.49,10.49,0,0,1,219.8,62.865c-.954-1.6-.755-2.212,1.1-3.394,1.6-1.018,2.79-.893,3.654.385,2.018,2.983,5.4,3.367,7.974.839q4.625-4.531,9.158-9.158a5,5,0,0,0,.219-7.192c-2-2.036-5.084-1.962-7.309.221-2.262,2.22-4.485,4.479-6.729,6.719-.422.421-.82.958-1.521.778a16.585,16.585,0,0,0-6.308-.109" transform="translate(310.086 79.393)" fill="#4937c1"/>
      <path id="Path_21" data-name="Path 21" d="M213.645,83.173c-4.445-.262-7.836-2.3-9.662-6.425a9.912,9.912,0,0,1,1.953-11.4c3.232-3.483,6.613-6.838,10.077-10.09a10.535,10.535,0,0,1,16.268,2.318c.9,1.541.653,2.216-1.227,3.362-1.561.951-2.721.83-3.54-.371-2.1-3.074-5.441-3.437-8.075-.836q-4.549,4.492-9.043,9.041a4.982,4.982,0,1,0,6.988,7.076q3.4-3.323,6.718-6.729a2.136,2.136,0,0,1,2.324-.7,11.514,11.514,0,0,0,4.557.091c.308-.041.664-.246.886.113.173.278-.048.551-.225.732-4.195,4.289-8.061,8.931-12.951,12.48a9.2,9.2,0,0,1-5.048,1.347" transform="translate(310.086 79.393)" fill="#4937c1"/>
      <path id="Path_22" data-name="Path 22" d="M223.272,16.826H172.058a.905.905,0,0,0-.9.875l-.487,14.1a.907.907,0,0,0,.906.938h.6a.909.909,0,0,0,.889-.733q1.413-6.926,4.088-9.056,2.813-2.241,10.589-2.241h4.353a.907.907,0,0,1,.907.906V67.552q0,6.055-1.464,7.557-1.36,1.4-6.588,1.887a.906.906,0,0,0,.085,1.808h13.612a.907.907,0,0,0,.864-1.171c-1.658-5.64-.45-11.309,2.554-14.4a.924.924,0,0,0,.268-.642V21.62a.907.907,0,0,1,.907-.906h4.308q8.141,0,10.68,2.264,2.416,2.156,4.025,9.059a.911.911,0,0,0,.884.707h.582a.908.908,0,0,0,.906-.936l-.446-14.1a.907.907,0,0,0-.906-.878" transform="translate(310.086 79.393)" fill="#4937c1"/>
    </g>
  </g>
</svg>
