<svg xmlns="http://www.w3.org/2000/svg" width="135" height="100" viewBox="0 0 135 100">
  <g id="Group_15" data-name="Group 15" transform="translate(119.375 341.983)">
    <rect id="Rectangle_7" data-name="Rectangle 7" width="134" height="99" transform="translate(-118.875 -341.483)" fill="none"/>
    <path id="Path_7" data-name="Path 7" d="M1,107.327H134v98H1Zm-1,99H135v-100H0Z" transform="translate(-119.375 -448.31)" fill="none"/>
    <path id="Path_10" data-name="Path 10" d="M64.457,118.226c12.506,0,25.013-.059,37.518.018,10.245.063,14.724,4.394,14.836,14.52q.2,18.111-.013,36.224c-.11,8.687-5.077,13.484-13.787,13.535-12.937.076-25.885.319-38.808-.114-5.873-.2-10.431,1.093-14,5.85-3.471,4.624-7.206,5.025-10.949.186-3.377-4.365-7.571-6.148-13.325-5.836-8.249.447-13.267-4.617-13.4-12.926q-.3-19.077.006-38.163c.137-8.95,4.6-13.136,13.755-13.208,12.72-.1,25.442-.026,38.164-.026v-.06" transform="translate(-119.375 -448.31)" fill="#4c36c9"/>
    <path id="Path_11" data-name="Path 11" d="M42.09,163.678h0a2.617,2.617,0,0,1-2.617-2.617V138.6a2.617,2.617,0,0,1,5.234,0v22.465a2.617,2.617,0,0,1-2.617,2.617" transform="translate(-119.375 -448.31)" fill="#fff"/>
    <path id="Path_12" data-name="Path 12" d="M49.932,169.707h0a2.617,2.617,0,0,1-2.617-2.617V132.567a2.617,2.617,0,1,1,5.234,0V167.09a2.617,2.617,0,0,1-2.617,2.617" transform="translate(-119.375 -448.31)" fill="#fff"/>
    <path id="Path_13" data-name="Path 13" d="M57.523,157.677h0a2.617,2.617,0,0,1-2.617-2.617V144.6a2.617,2.617,0,0,1,5.234,0V155.06a2.617,2.617,0,0,1-2.617,2.617" transform="translate(-119.375 -448.31)" fill="#fff"/>
    <path id="Path_14" data-name="Path 14" d="M94.728,157.677h0a2.617,2.617,0,0,1-2.617-2.617V144.6a2.617,2.617,0,0,1,5.234,0V155.06a2.617,2.617,0,0,1-2.617,2.617" transform="translate(-119.375 -448.31)" fill="#fff"/>
    <path id="Path_15" data-name="Path 15" d="M34.571,157.677h0a2.617,2.617,0,0,1-2.617-2.617V144.6a2.617,2.617,0,0,1,5.234,0V155.06a2.617,2.617,0,0,1-2.617,2.617" transform="translate(-119.375 -448.31)" fill="#fff"/>
    <path id="Path_16" data-name="Path 16" d="M65.053,161.451h0a2.617,2.617,0,0,1-2.617-2.617V140.823a2.617,2.617,0,1,1,5.234,0v18.011a2.617,2.617,0,0,1-2.617,2.617" transform="translate(-119.375 -448.31)" fill="#fff"/>
    <path id="Path_17" data-name="Path 17" d="M80.136,163.635h0a2.617,2.617,0,0,1-2.617-2.617V138.639a2.617,2.617,0,1,1,5.234,0v22.379a2.617,2.617,0,0,1-2.617,2.617" transform="translate(-119.375 -448.31)" fill="#fff"/>
    <path id="Path_18" data-name="Path 18" d="M72.584,166.654h0a2.617,2.617,0,0,1-2.617-2.617V135.621a2.617,2.617,0,1,1,5.234,0v28.416a2.617,2.617,0,0,1-2.617,2.617" transform="translate(-119.375 -448.31)" fill="#fff"/>
    <path id="Path_19" data-name="Path 19" d="M87.35,166.654h0a2.617,2.617,0,0,1-2.617-2.617V135.621a2.617,2.617,0,1,1,5.233,0v28.416a2.617,2.617,0,0,1-2.616,2.617" transform="translate(-119.375 -448.31)" fill="#fff"/>
  </g>
</svg>
