<svg xmlns="http://www.w3.org/2000/svg" width="135" height="100" viewBox="0 0 135 100">
  <g id="Group_4" data-name="Group 4" transform="translate(-74 -79)">
    <path id="Path_1" data-name="Path 1" d="M1,2.391H134v98H1Zm-1,99H135v-100H0Z" transform="translate(74 77.609)" fill="none"/>
    <g id="Group_3" data-name="Group 3" transform="translate(-2.169 -0.374)">
      <path id="Path_47" data-name="Path 47" d="M58.382,78.91V78.3a.5.5,0,0,1,.432-.493A6.574,6.574,0,0,0,63.2,75.449q1.6-2.053,5.5-11.236L85.907,23.677a.5.5,0,0,1,.459-.3h1a.5.5,0,0,1,.456.3l20.6,46.88q2.071,4.688,3.311,5.8a7.409,7.409,0,0,0,3.753,1.454.494.494,0,0,1,.412.49v.617a.5.5,0,0,1-.5.5H95.24a.5.5,0,0,1-.5-.5v-.591a.5.5,0,0,1,.449-.5,16.988,16.988,0,0,0,4.254-.747q1.056-.465,1.056-2.286a10.084,10.084,0,0,0-.406-2.142,23.223,23.223,0,0,0-1.138-3.236l-3.2-7.7a.5.5,0,0,0-.459-.307H74.032a.5.5,0,0,0-.464.317q-3.127,7.886-3.746,9.65a9.248,9.248,0,0,0-.63,2.851A2.942,2.942,0,0,0,70.9,77.137a12.268,12.268,0,0,0,3.524.688.5.5,0,0,1,.45.5v.59a.5.5,0,0,1-.5.5H58.88a.5.5,0,0,1-.5-.5M93.935,57.345,85.144,36.219a.5.5,0,0,0-.92,0L75.393,57.344a.5.5,0,0,0,.459.69H93.475a.5.5,0,0,0,.46-.689" transform="translate(74 78.001)" fill="#4937c1"/>
      <path id="Path_48" data-name="Path 48" d="M19.095,78.857v-.024a.5.5,0,0,1,.407-.488,4,4,0,0,0,2.562-1.431,40.978,40.978,0,0,0,3.391-6.926L36.014,45.116a.5.5,0,0,1,.458-.3h.367a.5.5,0,0,1,.456.3L49.946,73.895a12.241,12.241,0,0,0,2.041,3.574,4.38,4.38,0,0,0,2.162.87.5.5,0,0,1,.406.489v.029a.5.5,0,0,1-.5.5H42.007a.5.5,0,0,1-.5-.5h0a.5.5,0,0,1,.45-.5,9.836,9.836,0,0,0,2.45-.444q.649-.287.651-1.408a6.182,6.182,0,0,0-.251-1.321,14.386,14.386,0,0,0-.7-2l-1.926-4.628a.5.5,0,0,0-.46-.307H28.873a.5.5,0,0,0-.464.317q-1.885,4.754-2.261,5.828a5.69,5.69,0,0,0-.388,1.757,1.813,1.813,0,0,0,1.051,1.795,7.085,7.085,0,0,0,2,.407.5.5,0,0,1-.05.993H19.593a.5.5,0,0,1-.5-.5M40.9,65.49,35.769,53.154a.5.5,0,0,0-.92,0L29.692,65.489a.5.5,0,0,0,.46.69h10.29a.5.5,0,0,0,.46-.689" transform="translate(74 78.001)" fill="#4937c1"/>
      <path id="Path_49" data-name="Path 49" d="M119.586,43.84v9.4h9.039v2.4h-9.039v9.478h-2.56V55.639h-9.038v-2.4h9.038v-9.4Z" transform="translate(74 78.001)" fill="#4937c1"/>
      <rect id="Rectangle_9" data-name="Rectangle 9" width="9.878" height="2.6" transform="translate(84.169 133.88)" fill="#4937c1"/>
    </g>
  </g>
</svg>
